<svg xmlns="http://www.w3.org/2000/svg" width="1200" height="900" viewBox="0 0 1200 900">
  <defs>
    <linearGradient id="bg" x1="0" y1="0" x2="1" y2="1">
      <stop offset="0%" stop-color="#0f172a"/>
      <stop offset="48%" stop-color="#111827"/>
      <stop offset="100%" stop-color="#374151"/>
    </linearGradient>
    <linearGradient id="shoe" x1="0" y1="0" x2="1" y2="1">
      <stop offset="0%" stop-color="#f3f4f6"/>
      <stop offset="100%" stop-color="#ffffff"/>
    </linearGradient>
    <filter id="shadow" x="-20%" y="-20%" width="140%" height="140%">
      <feDropShadow dx="0" dy="30" stdDeviation="28" flood-color="#000" flood-opacity="0.42"/>
    </filter>
  </defs>
  <rect width="1200" height="900" rx="0" fill="url(#bg)"/>
  <circle cx="1000" cy="145" r="230" fill="#111827" opacity="0.20"/>
  <circle cx="155" cy="750" r="250" fill="#f3f4f6" opacity="0.16"/>
  <path d="M95 195 C245 95 415 80 635 120 C815 153 1010 265 1115 390" stroke="#fff" stroke-opacity="0.08" stroke-width="34" fill="none"/>

  <g filter="url(#shadow)" transform="translate(95 210) rotate(-4 520 260)">
    <path d="M102 319 C165 250 246 204 362 183 C448 167 550 176 628 205 C706 234 773 291 842 317 C910 342 978 331 1026 326 C1048 360 1068 403 1074 447 C980 501 802 513 637 491 C493 472 373 433 222 425 C157 421 103 386 76 351 Z" fill="url(#shoe)"/>
    <path d="M86 392 C190 459 360 488 607 505 C792 518 964 500 1078 455 C1088 488 1071 525 1034 545 C806 603 567 576 360 535 C235 510 125 492 59 436 C55 414 65 399 86 392 Z" fill="#e5e7eb"/>
    <path d="M190 398 C315 443 460 462 646 474 C792 484 946 472 1049 432" stroke="#0f172a" stroke-width="16" stroke-linecap="round" fill="none" opacity="0.55"/>
    <path d="M285 367 L390 220 L628 244 L770 330" stroke="#111827" stroke-width="22" fill="none" stroke-linecap="round" stroke-linejoin="round" opacity="0.78"/>
    <path d="M365 278 C450 302 525 314 648 309" stroke="#0f172a" stroke-opacity="0.50" stroke-width="14" fill="none" stroke-linecap="round"/>
    <path d="M377 305 L630 330" stroke="#0f172a" stroke-opacity="0.35" stroke-width="12" stroke-linecap="round"/>
    <circle cx="545" cy="350" r="42" fill="#111827" opacity="0.9"/><text x="545" y="360" text-anchor="middle" font-family="Arial" font-size="24" font-weight="900" fill="#fff">NE</text>
    <path d="M154 336 C229 338 286 319 326 276" stroke="#fff" stroke-width="14" stroke-linecap="round" opacity="0.45" fill="none"/>
    <path d="M780 327 C866 373 947 378 1040 350" stroke="#fff" stroke-width="16" stroke-linecap="round" opacity="0.55" fill="none"/>
  </g>

  <text x="88" y="105" fill="#ffffff" font-family="Arial, Helvetica, sans-serif" font-size="46" font-weight="900">New Balance</text>
  <text x="88" y="153" fill="#dbeafe" font-family="Arial, Helvetica, sans-serif" font-size="27" font-weight="700">Forum Move · HOMMES</text>
  <text x="88" y="810" fill="#ffffff" opacity="0.70" font-family="Arial, Helvetica, sans-serif" font-size="20">Image produit locale générée · aucune dépendance externe</text>
</svg>